<svg xmlns="http://www.w3.org/2000/svg" xmlns:xlink="http://www.w3.org/1999/xlink" width="500" zoomAndPan="magnify" viewBox="0 0 375 374.999991" height="500" preserveAspectRatio="xMidYMid meet" version="1.0"><defs><clipPath id="3ba74ca0d3"><path d="M 129 110.03125 L 261 110.03125 L 261 248.78125 L 129 248.78125 Z M 129 110.03125 " clip-rule="nonzero"/></clipPath><clipPath id="80112f81e7"><path d="M 219.070312 88.339844 L 262.570312 88.339844 L 262.570312 131.839844 L 219.070312 131.839844 Z M 219.070312 88.339844 " clip-rule="nonzero"/></clipPath></defs><rect x="-37.5" width="450" fill="#ffffff" y="-37.499999" height="449.999989" fill-opacity="1"/><rect x="-37.5" width="450" fill="#ffffff" y="-37.499999" height="449.999989" fill-opacity="1"/><g clip-path="url(#3ba74ca0d3)"><path fill="#a7c747" d="M 257.277344 126.75 C 255.34375 119.488281 246.273438 112.96875 236.386719 112.085938 C 213.664062 110.070312 162.003906 110.476562 150.761719 112.277344 C 144.675781 113.253906 132.484375 115.925781 130.796875 136.628906 C 129.515625 152.175781 128.105469 189.625 130.792969 211.371094 C 132.4375 224.75 140.605469 228.898438 145.632812 229.882812 C 151.953125 231.121094 158.464844 231.167969 164.851562 231.589844 C 165.40625 240.765625 162.117188 246.597656 159.359375 248.851562 C 169.539062 247.421875 177.015625 238.238281 178.890625 232.414062 C 192.402344 233.097656 225.246094 232.996094 239.882812 230.171875 C 256.195312 227.03125 258.164062 217.605469 258.898438 210.640625 C 260.464844 196.011719 262.425781 146.007812 257.277344 126.75 Z M 257.277344 126.75 " fill-opacity="1" fill-rule="nonzero"/></g><path fill="#2d323f" d="M 243.429688 168.429688 C 243.304688 167.226562 242.941406 166.101562 242.339844 165.050781 C 241.632812 163.941406 240.640625 163.226562 239.363281 162.90625 C 239.222656 162.859375 239.058594 162.824219 238.902344 162.78125 C 238.492188 158.554688 237.945312 154.328125 236.789062 150.238281 C 235.867188 146.972656 234.59375 143.5625 231.96875 141.277344 C 229.160156 138.851562 225.476562 138.089844 221.941406 137.445312 C 217.53125 136.65625 213.09375 136.09375 208.628906 135.753906 C 204.457031 135.421875 200.273438 135.238281 196.074219 135.199219 C 196.03125 133.945312 195.988281 132.6875 195.941406 131.4375 C 195.894531 130.183594 195.449219 128.40625 194.449219 128.617188 C 193.617188 129.164062 193.304688 131.949219 193.253906 135.199219 C 189.109375 135.226562 184.964844 135.394531 180.824219 135.734375 C 176.957031 136.023438 173.121094 136.539062 169.3125 137.277344 C 165.597656 138.027344 161.835938 139.171875 158.902344 141.679688 C 156.761719 143.519531 155.347656 146.097656 154.382812 148.710938 C 152.964844 152.542969 152.429688 156.695312 152.113281 160.753906 C 152.078125 161.246094 152.050781 161.738281 152.019531 162.234375 C 149.082031 162.9375 147.621094 164.351562 146.722656 166.273438 C 146.082031 167.742188 145.703125 169.277344 145.585938 170.875 C 145.355469 175.050781 145.46875 179.769531 146.734375 183.644531 C 147.683594 186.542969 149.867188 188.585938 153.371094 189.355469 C 153.605469 193.351562 154.195312 197.296875 155.144531 201.191406 C 155.789062 203.605469 156.789062 205.746094 158.726562 207.410156 C 161.054688 209.402344 164.042969 210.328125 167.011719 210.949219 C 169.789062 211.515625 172.59375 211.863281 175.425781 211.988281 C 175.457031 212.394531 175.542969 212.789062 175.683594 213.167969 C 175.914062 213.679688 176.300781 213.988281 176.855469 214.089844 C 177.8125 214.277344 181.039062 214.652344 183.050781 214.011719 C 183.328125 213.941406 183.578125 213.820312 183.800781 213.636719 C 184.023438 213.398438 184.175781 213.121094 184.261719 212.804688 C 184.429688 212.046875 184.492188 211.277344 184.449219 210.503906 C 184.386719 209.847656 184.261719 209.351562 183.730469 209.019531 C 183.328125 208.808594 182.898438 208.707031 182.441406 208.714844 C 180.941406 208.625 179.4375 208.578125 177.9375 208.574219 C 177.503906 208.546875 177.082031 208.59375 176.671875 208.726562 C 176.332031 208.890625 176.050781 209.125 175.835938 209.433594 C 175.621094 209.742188 175.492188 210.085938 175.453125 210.460938 C 173.167969 210.359375 170.898438 210.109375 168.644531 209.714844 C 165.855469 209.21875 162.863281 208.53125 160.511719 206.867188 C 158.46875 205.414062 157.386719 203.460938 156.730469 201.101562 C 156.105469 198.699219 155.660156 196.265625 155.398438 193.796875 C 155.226562 192.414062 155.089844 191.035156 154.96875 189.625 C 155.777344 189.707031 156.585938 189.734375 157.398438 189.707031 L 159.941406 161.839844 C 157.925781 161.695312 155.914062 161.730469 153.90625 161.941406 C 154.0625 158.453125 154.570312 155.019531 155.429688 151.636719 C 156.125 149.0625 157.210938 146.398438 158.882812 144.414062 C 161.140625 141.722656 164.542969 140.335938 167.890625 139.539062 C 171.332031 138.75 174.808594 138.195312 178.324219 137.867188 C 183.277344 137.367188 188.265625 137.125 193.257812 137.097656 C 193.257812 139.441406 193.40625 141.84375 193.539062 143.710938 L 196.378906 143.527344 C 196.304688 141.378906 196.230469 139.238281 196.152344 137.109375 C 199.007812 137.140625 201.859375 137.234375 204.707031 137.394531 C 209.121094 137.640625 213.53125 138.042969 217.90625 138.695312 C 219.9375 138.996094 221.964844 139.351562 223.980469 139.777344 C 225.671875 140.089844 227.28125 140.636719 228.816406 141.417969 C 231.511719 142.875 233.113281 145.375 234.140625 148.203125 C 235.65625 152.347656 236.351562 156.742188 236.828125 161.117188 C 236.878906 161.574219 236.921875 162.078125 236.96875 162.554688 C 235.175781 162.378906 233.390625 162.40625 231.605469 162.640625 L 229.214844 190.1875 C 231.953125 190.09375 234.667969 189.789062 237.359375 189.265625 C 239.527344 188.804688 241.171875 186.703125 242.039062 184.492188 C 242.847656 182.128906 243.34375 179.699219 243.539062 177.210938 C 243.75 174.28125 243.714844 171.355469 243.429688 168.429688 Z M 243.429688 168.429688 " fill-opacity="1" fill-rule="nonzero"/><path fill="#e9f4ef" d="M 231.585938 193.542969 C 230.457031 198.320312 228.121094 200.761719 224.027344 202.125 C 211.472656 206.3125 180.503906 205.386719 169.367188 203.238281 C 165.042969 202.40625 160.40625 200.015625 159.019531 195.921875 C 156.179688 189.722656 155.902344 172.078125 156.4375 164.328125 C 157.117188 154.476562 158.429688 148.925781 164.808594 146.253906 C 168.863281 144.554688 177.039062 143.1875 181.035156 142.875 C 192.777344 141.957031 204.503906 142.140625 216.210938 143.429688 C 221.015625 143.957031 226.203125 144.878906 229.453125 148.457031 C 232.59375 151.914062 233.105469 156.957031 233.257812 161.625 C 233.628906 172.972656 233.304688 186.1875 231.585938 193.542969 Z M 190.117188 130.472656 C 192.535156 130.558594 196.46875 130.570312 199.203125 130.515625 C 200.027344 130.519531 200.847656 130.449219 201.660156 130.308594 C 202.78125 130.035156 203.195312 128.925781 203.300781 127.757812 C 203.390625 126.875 203.300781 125.363281 202.382812 124.996094 C 200.246094 124.316406 193.335938 124.097656 189.03125 124.996094 C 188.292969 125.140625 187.613281 125.429688 187 125.867188 C 186.238281 126.421875 186.175781 127.667969 186.394531 128.585938 C 186.773438 130.175781 188.382812 130.402344 190.117188 130.460938 Z M 190.117188 130.472656 " fill-opacity="1" fill-rule="nonzero"/><path fill="#2d323f" d="M 202.210938 182.21875 C 202.136719 182.652344 202.027344 183.074219 201.878906 183.484375 C 201.734375 183.898438 201.550781 184.296875 201.335938 184.675781 C 201.117188 185.058594 200.871094 185.417969 200.59375 185.753906 C 200.3125 186.09375 200.007812 186.402344 199.671875 186.6875 C 199.339844 186.972656 198.984375 187.226562 198.605469 187.449219 C 198.226562 187.667969 197.832031 187.855469 197.421875 188.007812 C 197.011719 188.164062 196.589844 188.277344 196.160156 188.359375 C 195.726562 188.4375 195.292969 188.480469 194.855469 188.480469 C 194.417969 188.484375 193.980469 188.449219 193.550781 188.378906 C 193.117188 188.304688 192.695312 188.195312 192.28125 188.046875 C 191.867188 187.902344 191.472656 187.71875 191.089844 187.503906 C 190.707031 187.289062 190.347656 187.039062 190.011719 186.761719 C 189.671875 186.480469 189.363281 186.175781 189.078125 185.839844 C 188.792969 185.507812 188.539062 185.152344 188.316406 184.773438 C 188.097656 184.394531 187.90625 184.003906 187.753906 183.589844 C 187.601562 183.179688 187.484375 182.761719 187.40625 182.328125 C 187.195312 181.199219 188.914062 180.722656 189.128906 181.867188 C 189.632812 184.546875 192.074219 186.738281 194.855469 186.710938 C 197.636719 186.683594 200.023438 184.445312 200.484375 181.757812 C 200.679688 180.605469 202.40625 181.089844 202.210938 182.21875 Z M 179.121094 162.539062 C 178.203125 162.308594 177.285156 162.285156 176.355469 162.464844 C 173.898438 163.21875 172.894531 165.636719 173.042969 168.207031 C 173.074219 169.03125 173.382812 169.738281 173.964844 170.328125 C 175.617188 172.058594 178.6875 172.546875 180.523438 171.023438 C 181.015625 170.605469 181.414062 170.117188 181.726562 169.554688 C 182.039062 168.996094 182.238281 168.394531 182.332031 167.757812 C 182.425781 167.125 182.402344 166.492188 182.261719 165.863281 C 182.125 165.238281 181.878906 164.65625 181.527344 164.117188 C 180.921875 163.289062 180.121094 162.761719 179.121094 162.539062 Z M 215.722656 164.144531 C 215.109375 163.300781 214.296875 162.769531 213.277344 162.546875 C 212.363281 162.316406 211.441406 162.292969 210.515625 162.472656 C 208.058594 163.230469 207.054688 165.644531 207.203125 168.214844 C 207.234375 169.042969 207.539062 169.75 208.121094 170.335938 C 209.773438 172.066406 212.84375 172.554688 214.6875 171.03125 C 215.175781 170.617188 215.578125 170.132812 215.890625 169.574219 C 216.203125 169.011719 216.40625 168.417969 216.503906 167.785156 C 216.597656 167.148438 216.578125 166.519531 216.445312 165.894531 C 216.308594 165.265625 216.070312 164.683594 215.722656 164.144531 Z M 215.722656 164.144531 " fill-opacity="1" fill-rule="nonzero"/><path fill="#f4ab9a" d="M 221.945312 183.605469 C 221.402344 184.109375 220.765625 184.449219 220.039062 184.617188 C 219.042969 184.929688 218.023438 185.070312 216.980469 185.035156 C 216.253906 185.058594 215.601562 184.847656 215.027344 184.402344 C 214.894531 184.253906 214.816406 184.078125 214.796875 183.878906 C 214.765625 183.308594 214.886719 182.777344 215.164062 182.277344 C 215.441406 181.777344 215.828125 181.390625 216.332031 181.117188 C 217.339844 180.585938 218.414062 180.332031 219.550781 180.359375 C 220.683594 180.316406 222.066406 180.546875 222.484375 181.601562 C 222.59375 181.960938 222.601562 182.320312 222.503906 182.679688 C 222.40625 183.042969 222.222656 183.351562 221.945312 183.605469 Z M 173.285156 181.117188 C 172.285156 180.589844 171.21875 180.335938 170.085938 180.359375 C 168.949219 180.316406 167.570312 180.546875 167.15625 181.601562 C 167.042969 181.957031 167.03125 182.316406 167.125 182.675781 C 167.214844 183.039062 167.394531 183.347656 167.664062 183.605469 C 168.214844 184.109375 168.851562 184.445312 169.578125 184.617188 C 170.574219 184.929688 171.59375 185.070312 172.636719 185.035156 C 173.363281 185.058594 174.015625 184.847656 174.589844 184.402344 C 174.722656 184.253906 174.796875 184.078125 174.816406 183.878906 C 174.847656 183.3125 174.726562 182.777344 174.453125 182.277344 C 174.175781 181.777344 173.785156 181.390625 173.285156 181.117188 Z M 173.285156 181.117188 " fill-opacity="1" fill-rule="nonzero"/><g clip-path="url(#80112f81e7)"><path fill="#2d323f" d="M 262.4375 110.023438 C 246.175781 113.015625 243.75 115.445312 240.753906 131.707031 C 237.761719 115.445312 235.332031 113.015625 219.070312 110.023438 C 235.332031 107.03125 237.761719 104.601562 240.753906 88.339844 C 243.75 104.601562 246.175781 107.03125 262.4375 110.023438 Z M 262.4375 110.023438 " fill-opacity="1" fill-rule="nonzero"/></g></svg>